<svg width="76" height="76" viewBox="0 0 76 76" fill="none" xmlns="http://www.w3.org/2000/svg">
<path d="M75.8161 57.0047L75.833 56.9955L67.3657 42.4789L64.9509 27.9929C64.8528 27.4015 64.341 26.9679 63.7419 26.9679H56.3871V23.2904H67.4194C68.0966 23.2904 68.6452 22.7419 68.6452 22.0646C68.6452 18.0088 65.3462 14.7098 61.2903 14.7098H44.129C40.0731 14.7098 36.7742 18.0088 36.7742 22.0646V26.9679H30.6452V23.2904C30.6452 22.6132 30.0966 22.0646 29.4194 22.0646H26.9677V17.1614H34.3226C34.9998 17.1614 35.5484 16.6129 35.5484 15.9356V1.22593C35.5484 0.54867 34.9998 0.00012207 34.3226 0.00012207H12.2581C11.5808 0.00012207 11.0323 0.54867 11.0323 1.22593V15.9356C11.0323 16.6129 11.5808 17.1614 12.2581 17.1614H19.6129V22.0646H17.1613C16.484 22.0646 15.9355 22.6132 15.9355 23.2904V26.9679H12.2581C11.659 26.9679 11.1472 27.4015 11.0491 27.9929L8.63427 42.4789L0.167016 56.9955L0.183871 57.0047C0.0766129 57.1871 0 57.3878 0 57.613V74.7743C0 75.4516 0.548548 76.0001 1.22581 76.0001H74.7742C75.4515 76.0001 76 75.4516 76 74.7743V57.613C76 57.3878 75.9234 57.1871 75.8161 57.0047ZM11.0323 58.8388H64.9677V63.7421H11.0323V58.8388ZM3.36024 56.3872L10.5098 44.1292H65.4902L72.6398 56.3872H3.36024ZM61.2903 17.1614C63.5703 17.1614 65.4933 18.7258 66.0373 20.8388H56.5602C57.1088 18.7289 59.0119 17.1614 61.2903 17.1614ZM44.129 17.1614H55.8125C54.6465 18.4638 53.9355 20.183 53.9355 22.0646V34.3227H39.2258V22.0646C39.2258 19.3602 41.4246 17.1614 44.129 17.1614ZM13.4839 2.45174H33.0968V14.7098H13.4839V2.45174ZM22.0645 17.1614H24.5161V22.0646H22.0645V17.1614ZM18.3871 24.5163H28.1935V26.9679H18.3871V24.5163ZM13.2969 29.4195H36.7742V34.3227H34.3226V36.7743H58.8387V34.3227H56.3871V29.4195H62.7031L64.7456 41.6775H11.2529L13.2969 29.4195ZM73.5484 73.5485H2.45161V58.8388H8.58065V64.9679C8.58065 65.6451 9.12919 66.1937 9.80645 66.1937H66.1936C66.8708 66.1937 67.4194 65.6451 67.4194 64.9679V58.8388H73.5484V73.5485Z" fill="#1055FD"/>
<path d="M38 72.3225C39.3539 72.3225 40.4516 71.2249 40.4516 69.8709C40.4516 68.5169 39.3539 67.4193 38 67.4193C36.646 67.4193 35.5483 68.5169 35.5483 69.8709C35.5483 71.2249 36.646 72.3225 38 72.3225Z" fill="#1055FD"/>
<path d="M29.4193 4.9032H17.1612C16.484 4.9032 15.9354 5.45175 15.9354 6.129V11.0322C15.9354 11.7095 16.484 12.258 17.1612 12.258H29.4193C30.0966 12.258 30.6451 11.7095 30.6451 11.0322V6.129C30.6451 5.45175 30.0966 4.9032 29.4193 4.9032ZM28.1935 9.80642H18.387V7.35481H28.1935V9.80642Z" fill="#1055FD"/>
<path d="M17.1612 39.2259H29.4193C30.0966 39.2259 30.6451 38.6774 30.6451 38.0001V33.0969C30.6451 32.4196 30.0966 31.8711 29.4193 31.8711H17.1612C16.484 31.8711 15.9354 32.4196 15.9354 33.0969V38.0001C15.9354 38.6774 16.484 39.2259 17.1612 39.2259ZM18.387 34.3227H28.1935V36.7743H18.387V34.3227Z" fill="#1055FD"/>
<path d="M12.258 46.5808H22.0644V49.0324H12.258V46.5808Z" fill="#1055FD"/>
<path d="M24.5161 46.5808H34.3226V49.0324H24.5161V46.5808Z" fill="#1055FD"/>
<path d="M22.0645 51.484H31.871V53.9356H22.0645V51.484Z" fill="#1055FD"/>
<path d="M8.58057 51.484H18.387V53.9356H8.58057V51.484Z" fill="#1055FD"/>
<path d="M53.9355 46.5808H63.7419V49.0324H53.9355V46.5808Z" fill="#1055FD"/>
<path d="M41.6774 46.5808H51.4839V49.0324H41.6774V46.5808Z" fill="#1055FD"/>
<path d="M44.129 51.484H53.9354V53.9356H44.129V51.484Z" fill="#1055FD"/>
<path d="M57.6129 51.484H67.4193V53.9356H57.6129V51.484Z" fill="#1055FD"/>
<path d="M34.3226 51.484H41.6774V53.9356H34.3226V51.484Z" fill="#1055FD"/>
<path d="M42.9032 20.8389H45.3548V23.2905H42.9032V20.8389Z" fill="#1055FD"/>
<path d="M47.8064 20.8389H50.258V23.2905H47.8064V20.8389Z" fill="#1055FD"/>
<path d="M41.6774 25.7419H51.4839V28.1936H41.6774V25.7419Z" fill="#1055FD"/>
</svg>
