<svg width="16" height="16" viewBox="0 0 16 16" fill="none" xmlns="http://www.w3.org/2000/svg">
<path d="M8 0.125C3.65117 0.125 0.125 3.65117 0.125 8C0.125 12.3488 3.65117 15.875 8 15.875C12.3488 15.875 15.875 12.3488 15.875 8C15.875 3.65117 12.3488 0.125 8 0.125ZM12.0395 5.3668L7.14922 11.6422C7.11055 11.6809 7.04727 11.7652 6.96992 11.7652C6.88906 11.7652 6.83633 11.709 6.79063 11.6633C6.74492 11.6176 4.0168 8.99492 4.0168 8.99492L3.96406 8.94219C3.94297 8.91055 3.92539 8.87187 3.92539 8.82969C3.92539 8.7875 3.94297 8.74883 3.96406 8.71719C3.97812 8.70312 3.98867 8.69258 4.00273 8.675C4.27344 8.39023 4.82188 7.81367 4.85703 7.77852C4.90273 7.73281 4.94141 7.67305 5.02578 7.67305C5.11367 7.67305 5.16992 7.74687 5.21211 7.78906C5.2543 7.83125 6.79414 9.31133 6.79414 9.31133L10.707 4.28398C10.7422 4.25586 10.7844 4.23477 10.8301 4.23477C10.8758 4.23477 10.918 4.25234 10.9531 4.28047L12.0289 5.12773C12.057 5.16289 12.0746 5.20508 12.0746 5.25078C12.0781 5.29648 12.0605 5.33516 12.0395 5.3668Z" fill="#E16629"/>
</svg>
