<svg width="65" height="63" viewBox="0 0 65 63" fill="none" xmlns="http://www.w3.org/2000/svg">
<path d="M32.5 62.2744C50.4493 62.2744 65 48.3338 65 31.1372C65 13.9406 50.4493 0 32.5 0C14.5507 0 0 13.9406 0 31.1372C0 48.3338 14.5507 62.2744 32.5 62.2744Z" fill="#0F55FE"/>
<path d="M34.2595 38.1112C35.6948 39.4863 35.6948 41.8437 34.2595 43.2189L31.2863 46.0674C29.8509 47.4425 27.3904 47.4425 25.955 46.0674L12.9345 33.4946C11.4992 32.1195 11.4992 29.7621 12.9345 28.387L15.9077 25.5384C17.343 24.1633 19.8036 24.1633 21.2389 25.5384L34.2595 38.1112Z" fill="white"/>
<path d="M45.6396 16.4027C47.075 15.0276 49.5355 15.0276 50.9709 16.4027L53.9441 19.2512C55.3794 20.6264 55.3794 22.9837 53.9441 24.3589L31.3888 45.8701C29.9535 47.2452 27.4929 47.2452 26.0576 45.8701L23.0844 43.0216C21.6491 41.6464 21.6491 39.289 23.0844 37.9139L45.6396 16.4027Z" fill="white"/>
</svg>
