<svg width="76" height="76" viewBox="0 0 76 76" fill="none" xmlns="http://www.w3.org/2000/svg">
<path d="M59.1452 76C54.9023 76 50.8832 75.3136 47.8325 74.0678C43.5406 72.3149 42.4604 70.0365 42.3102 68.4322L42.1831 67.0731L40.8454 67.3458C38.6083 67.8009 36.3099 68.0323 34.0161 68.0323C24.9298 68.0323 16.3875 64.4943 9.96274 58.0695C3.53798 51.6448 0 43.1024 0 34.0161C0 24.9298 3.53798 16.3875 9.96274 9.96274C16.3875 3.53798 24.9298 0 34.0161 0C43.1024 0 51.6448 3.53798 58.0695 9.96274C64.4943 16.3875 68.0323 24.9298 68.0323 34.0161C68.0323 34.747 68.0077 35.5024 67.9587 36.2578L67.8959 37.2201L68.8168 37.5081C69.4052 37.692 69.9568 37.8897 70.4594 38.0935C75.2798 40.0609 76 42.7194 76 44.129C76 44.2409 75.9954 44.3619 75.9847 44.486L75.8728 45.8145H76V68.0323C76 69.4419 75.2798 72.1004 70.4578 74.0678C67.4071 75.3136 63.388 76 59.1452 76ZM45.9677 68.2437L46.1133 68.5149C46.9392 70.0502 51.6509 72.3226 59.1452 72.3226C66.6394 72.3226 71.3511 70.0502 72.177 68.5149L72.3226 68.2437V61.1815L70.6233 61.8925L70.4563 61.963C67.4071 63.2072 63.3895 63.8936 59.1452 63.8936C54.9008 63.8936 50.8832 63.2072 47.8325 61.9615C47.8049 61.9507 47.667 61.891 47.667 61.891L45.9677 61.1815V68.2437ZM34.0161 3.67742C17.2869 3.67742 3.67742 17.2869 3.67742 34.0161C3.67742 50.7453 17.2869 64.3548 34.0161 64.3548C36.4969 64.3548 38.9684 64.053 41.3602 63.4585L42.2903 63.2271V45.8145H42.4175L42.3056 44.486C42.2949 44.3619 42.2903 44.2409 42.2903 44.129C42.2903 42.7194 43.0105 40.0609 47.8325 38.0935C50.8848 36.8477 54.9023 36.1613 59.1452 36.1613C60.4369 36.1613 61.727 36.2256 62.9835 36.3544L64.2828 36.4877L64.3319 35.1822C64.3472 34.7853 64.3548 34.3946 64.3548 34.0177C64.3548 17.2869 50.7453 3.67742 34.0161 3.67742ZM45.9677 56.1281L46.1087 56.3963C46.9193 57.9377 51.6218 60.2177 59.1452 60.2177C66.6685 60.2177 71.371 57.9377 72.1816 56.3963L72.3226 56.1281V49.3831L70.6233 50.0941L70.4563 50.1646C67.4071 51.4088 63.3895 52.0952 59.1452 52.0952C54.9023 52.0952 50.8832 51.4088 47.8325 50.1631C47.8049 50.1523 47.667 50.0926 47.667 50.0926L45.9677 49.3831V56.1281ZM59.1452 39.8387C51.6586 39.8387 47.2717 42.0268 46.2665 43.4058L45.744 44.1214L46.2604 44.8415C46.2696 44.8553 46.2834 44.8737 46.2987 44.8952C46.3232 44.9273 46.3462 44.9549 46.3707 44.984C46.3983 45.0162 46.4244 45.0469 46.4535 45.079C46.4811 45.1081 46.5071 45.1357 46.5331 45.1633C46.5592 45.1894 46.5883 45.2185 46.619 45.2476C46.6511 45.2767 46.6756 45.3012 46.7017 45.3242C46.7354 45.3548 46.7706 45.384 46.8059 45.4131C46.8319 45.4345 46.861 45.459 46.8932 45.4835C46.9208 45.505 46.9576 45.5326 46.9928 45.5602C47.0311 45.5893 47.0572 45.6092 47.0863 45.6306C47.1277 45.6613 47.169 45.6889 47.2089 45.7164C47.2089 45.7164 47.2809 45.7655 47.3069 45.7839C47.3468 45.8099 47.3912 45.8375 47.4341 45.8651C47.4341 45.8651 47.5107 45.9141 47.5429 45.9325C47.5858 45.9585 47.6318 45.9846 47.6762 46.0122L47.7038 46.0275C47.736 46.0459 47.7681 46.0658 47.8019 46.0842C47.8417 46.1072 47.8907 46.1332 47.9382 46.1593C47.9382 46.1593 48.0348 46.2114 48.0654 46.2282C48.1144 46.2543 48.165 46.2788 48.2156 46.3048C48.2156 46.3048 48.3274 46.3615 48.3565 46.3753C48.4224 46.4075 48.4929 46.4412 48.5649 46.4749L48.6553 46.5178C48.7672 46.5684 48.876 46.6159 48.9878 46.6649C49.0001 46.671 49.0246 46.6802 49.0476 46.6894C49.1441 46.7293 49.236 46.7676 49.3326 46.8059L49.4843 46.8641C49.5532 46.8917 49.6237 46.9177 49.6957 46.9453C49.7294 46.9576 49.8689 47.0066 49.8689 47.0066C49.9394 47.0327 50.0114 47.0572 50.0849 47.0832C50.1217 47.0955 50.2504 47.1384 50.2504 47.1384C50.3362 47.1675 50.4113 47.192 50.4879 47.2165L50.7162 47.287C50.7806 47.3069 50.8434 47.3253 50.9093 47.3452C50.9568 47.359 51.1023 47.4004 51.1023 47.4004C51.1881 47.4249 51.2678 47.4479 51.3506 47.4694L51.5544 47.523C51.6417 47.546 51.726 47.5674 51.8102 47.5889C51.8838 47.6073 51.9558 47.6241 52.0278 47.6425C52.1152 47.664 52.2025 47.6839 52.2914 47.7038C52.3665 47.7206 52.4415 47.7375 52.5181 47.7544C52.6086 47.7743 52.699 47.7927 52.7909 47.8126C52.869 47.8294 52.9472 47.8448 53.0253 47.8601C53.1203 47.8785 53.2153 47.8969 53.3103 47.9137C53.3931 47.929 53.4727 47.9444 53.5555 47.9581C53.652 47.975 53.7485 47.9919 53.8481 48.0072C53.934 48.021 54.0167 48.0348 54.101 48.0485C54.2036 48.0639 54.3063 48.0792 54.409 48.0945C54.4963 48.1068 54.5821 48.119 54.6694 48.1313C54.7721 48.1451 54.8778 48.1589 54.9851 48.1711C55.0831 48.1834 55.1674 48.1941 55.2517 48.2033C55.3482 48.214 55.4494 48.2248 55.549 48.2355C55.549 48.2355 55.788 48.26 55.8539 48.2661C55.955 48.2753 56.0592 48.2845 56.1634 48.2937L56.2415 48.2998C56.3181 48.306 56.3948 48.3136 56.4729 48.3198C56.5909 48.329 56.7104 48.3366 56.8299 48.3443L56.9188 48.3504C56.9831 48.355 57.049 48.3596 57.1149 48.3627C57.2191 48.3688 57.3294 48.3734 57.4413 48.3795C57.4413 48.3795 57.7125 48.3918 57.7738 48.3948C57.9025 48.3994 58.0343 48.4025 58.166 48.4071C58.166 48.4071 58.402 48.4132 58.451 48.4148C58.6794 48.4194 58.9107 48.4209 59.1467 48.4209C59.3827 48.4209 59.614 48.4178 59.8423 48.4148C59.8898 48.4132 60.1258 48.4071 60.1258 48.4071C60.2576 48.404 60.3894 48.401 60.5181 48.3948C60.5794 48.3933 60.6391 48.3902 60.7004 48.3872L60.8506 48.3811C60.9609 48.3765 61.0712 48.3703 61.1785 48.3642C61.2413 48.3611 61.3072 48.3565 61.3731 48.3519L61.5125 48.3427C61.6152 48.3366 61.7163 48.3289 61.8174 48.3213C61.8971 48.3152 61.9737 48.309 62.0503 48.3014L62.0963 48.2968C62.2143 48.2861 62.3277 48.2769 62.438 48.2661C62.5054 48.26 62.746 48.234 62.746 48.234C62.8456 48.2232 62.9452 48.2125 63.0432 48.2018C63.129 48.1926 63.2133 48.1819 63.2991 48.1711C63.414 48.1573 63.5213 48.1435 63.6255 48.1298C63.7128 48.1175 63.8002 48.1052 63.8875 48.093C63.9886 48.0792 64.0898 48.0639 64.1909 48.0485C64.2767 48.0348 64.361 48.021 64.4452 48.0072C64.5464 47.9903 64.6429 47.9735 64.7394 47.9566C64.8206 47.9428 64.9019 47.9275 64.9815 47.9122C65.0781 47.8938 65.1731 47.8769 65.265 47.8585C65.3447 47.8432 65.4228 47.8264 65.4994 47.8111C65.5929 47.7911 65.6833 47.7727 65.7737 47.7528C65.8473 47.7375 65.9239 47.7206 65.9974 47.7038C66.0894 47.6823 66.1767 47.6624 66.264 47.641C66.333 47.6241 66.4065 47.6073 66.4785 47.5889C66.5674 47.5674 66.6502 47.5444 66.7344 47.523C66.7344 47.523 66.8861 47.4831 66.9428 47.4678C67.024 47.4464 67.1052 47.4234 67.1865 47.3989C67.1865 47.3989 67.3335 47.3575 67.3841 47.3422C67.4623 47.3192 67.5419 47.2947 67.6201 47.2702L67.8055 47.2119C67.8806 47.1874 67.9572 47.1629 68.0323 47.1369C68.0323 47.1369 68.1702 47.0909 68.2085 47.0786C68.2744 47.0556 68.3387 47.0327 68.4031 47.0097C68.4031 47.0097 68.5578 46.9545 68.5931 46.9423C68.6605 46.9177 68.7279 46.8917 68.7938 46.8656L68.9547 46.8044C69.0512 46.766 69.1447 46.7277 69.2366 46.6894L69.2964 46.6649C69.4128 46.6144 69.5216 46.5669 69.6273 46.5194L69.7009 46.4841C69.7821 46.4458 69.8602 46.409 69.9353 46.3723C69.9614 46.36 70.0564 46.311 70.0564 46.311C70.1131 46.2819 70.1698 46.2543 70.2234 46.2252C70.2556 46.2083 70.3567 46.1531 70.3567 46.1531C70.4027 46.1286 70.4471 46.1041 70.49 46.0796C70.5191 46.0627 70.6202 46.0045 70.6202 46.0045C70.6616 45.98 70.7045 45.9555 70.7444 45.931C70.7719 45.9141 70.8026 45.8957 70.8332 45.8758C70.8332 45.8758 70.9405 45.8069 70.9757 45.7854C71.0094 45.764 71.0784 45.7149 71.0784 45.7149C71.1167 45.6889 71.1565 45.6613 71.1948 45.6337C71.2301 45.6077 71.2607 45.5847 71.2914 45.5617C71.3266 45.5356 71.3649 45.5065 71.4017 45.4774C71.4277 45.4575 71.4584 45.4314 71.489 45.4054C71.5166 45.3824 71.5503 45.3548 71.5825 45.3257C71.6132 45.2981 71.6392 45.2752 71.6637 45.2522C71.699 45.2185 71.7311 45.1878 71.7602 45.1587C71.7863 45.1327 71.8108 45.1066 71.8353 45.0806C71.866 45.0469 71.8935 45.0162 71.9181 44.9856C71.9456 44.9534 71.9686 44.9227 71.9916 44.8952L72.557 44.1183L72.0253 43.4027C71.0186 42.0268 66.6318 39.8387 59.1452 39.8387Z" fill="#1055FD"/>
<path d="M18.3871 35.8548V32.1774H32.1774V12.2581H35.8548V35.8548H18.3871Z" fill="#1055FD"/>
</svg>
