<svg width="22" height="16" viewBox="0 0 22 16" fill="none" xmlns="http://www.w3.org/2000/svg">
<path d="M20.0664 0H1.93359C0.865391 0 0 0.900444 0 2V14C0 15.1062 0.871406 16 1.93359 16H20.0664C21.1256 16 22 15.1098 22 14V2C22 0.902667 21.138 0 20.0664 0ZM19.7957 1.33333C19.4008 1.74 12.6023 8.73467 12.3673 8.97644C12.002 9.35422 11.5165 9.56222 11 9.56222C10.4835 9.56222 9.99797 9.35422 9.63144 8.97511C9.47375 8.81244 2.75 1.89467 2.2043 1.33333H19.7957ZM1.28906 13.7284V2.272L6.85953 8.00311L1.28906 13.7284ZM2.20516 14.6667L7.77348 8.944L8.72137 9.91911C9.33023 10.5489 10.1393 10.8956 11 10.8956C11.8607 10.8956 12.6702 10.5489 13.2778 9.92045L14.227 8.944L19.7948 14.6667H2.20516ZM20.7109 13.7284L15.1405 8.00356L20.7109 2.272V13.7284Z" fill="white"/>
</svg>
