<svg width="37" height="37" viewBox="0 0 37 37" fill="none" xmlns="http://www.w3.org/2000/svg">
<path d="M33.9682 15.0742H3.03177C1.35749 15.0742 0 16.6081 0 18.5001C0 20.392 1.35749 21.926 3.03177 21.926H33.9682C35.6425 21.926 37 20.392 37 18.5001C37 16.6081 35.6425 15.0742 33.9682 15.0742Z" fill="#E16629"/>
<path d="M15.0741 3.03177L15.0741 33.9682C15.0741 35.6425 16.6081 37 18.5 37C20.392 37 21.9259 35.6425 21.9259 33.9682L21.9259 3.03177C21.9259 1.35749 20.392 6.70522e-08 18.5 1.49752e-07C16.6081 2.32452e-07 15.0741 1.35749 15.0741 3.03177Z" fill="#E16629"/>
</svg>
