<svg width="76" height="76" viewBox="0 0 76 76" fill="none" xmlns="http://www.w3.org/2000/svg">
<path d="M76 0H0V76H76V0Z" fill="white"/>
<path d="M9.12002 6.08008H6.08002V9.12008H9.12002V6.08008Z" fill="#0F55FE"/>
<path d="M12.16 6.08008H9.12V9.12008H12.16V6.08008Z" fill="#0F55FE"/>
<path d="M15.2 6.08008H12.16V9.12008H15.2V6.08008Z" fill="#0F55FE"/>
<path d="M18.24 6.08008H15.2V9.12008H18.24V6.08008Z" fill="#0F55FE"/>
<path d="M21.28 6.08008H18.24V9.12008H21.28V6.08008Z" fill="#0F55FE"/>
<path d="M24.32 6.08008H21.28V9.12008H24.32V6.08008Z" fill="#0F55FE"/>
<path d="M27.36 6.08008H24.32V9.12008H27.36V6.08008Z" fill="#0F55FE"/>
<path d="M39.52 6.08008H36.48V9.12008H39.52V6.08008Z" fill="#0F55FE"/>
<path d="M51.68 6.08008H48.64V9.12008H51.68V6.08008Z" fill="#0F55FE"/>
<path d="M54.72 6.08008H51.68V9.12008H54.72V6.08008Z" fill="#0F55FE"/>
<path d="M57.76 6.08008H54.72V9.12008H57.76V6.08008Z" fill="#0F55FE"/>
<path d="M60.8 6.08008H57.76V9.12008H60.8V6.08008Z" fill="#0F55FE"/>
<path d="M63.84 6.08008H60.8V9.12008H63.84V6.08008Z" fill="#0F55FE"/>
<path d="M66.88 6.08008H63.84V9.12008H66.88V6.08008Z" fill="#0F55FE"/>
<path d="M69.92 6.08008H66.88V9.12008H69.92V6.08008Z" fill="#0F55FE"/>
<path d="M9.12002 9.12H6.08002V12.16H9.12002V9.12Z" fill="#0F55FE"/>
<path d="M27.36 9.12H24.32V12.16H27.36V9.12Z" fill="#0F55FE"/>
<path d="M33.44 9.12H30.4V12.16H33.44V9.12Z" fill="#0F55FE"/>
<path d="M39.52 9.12H36.48V12.16H39.52V9.12Z" fill="#0F55FE"/>
<path d="M42.56 9.12H39.52V12.16H42.56V9.12Z" fill="#0F55FE"/>
<path d="M45.6 9.12H42.56V12.16H45.6V9.12Z" fill="#0F55FE"/>
<path d="M51.68 9.12H48.64V12.16H51.68V9.12Z" fill="#0F55FE"/>
<path d="M69.92 9.12H66.88V12.16H69.92V9.12Z" fill="#0F55FE"/>
<path d="M9.12002 12.16H6.08002V15.2H9.12002V12.16Z" fill="#0F55FE"/>
<path d="M15.2 12.16H12.16V15.2H15.2V12.16Z" fill="#0F55FE"/>
<path d="M18.24 12.16H15.2V15.2H18.24V12.16Z" fill="#0F55FE"/>
<path d="M21.28 12.16H18.24V15.2H21.28V12.16Z" fill="#0F55FE"/>
<path d="M27.36 12.16H24.32V15.2H27.36V12.16Z" fill="#0F55FE"/>
<path d="M36.48 12.16H33.44V15.2H36.48V12.16Z" fill="#0F55FE"/>
<path d="M51.68 12.16H48.64V15.2H51.68V12.16Z" fill="#0F55FE"/>
<path d="M57.76 12.16H54.72V15.2H57.76V12.16Z" fill="#0F55FE"/>
<path d="M60.8 12.16H57.76V15.2H60.8V12.16Z" fill="#0F55FE"/>
<path d="M63.84 12.16H60.8V15.2H63.84V12.16Z" fill="#0F55FE"/>
<path d="M69.92 12.16H66.88V15.2H69.92V12.16Z" fill="#0F55FE"/>
<path d="M9.12002 15.2H6.08002V18.24H9.12002V15.2Z" fill="#0F55FE"/>
<path d="M15.2 15.2H12.16V18.24H15.2V15.2Z" fill="#0F55FE"/>
<path d="M18.24 15.2H15.2V18.24H18.24V15.2Z" fill="#0F55FE"/>
<path d="M21.28 15.2H18.24V18.24H21.28V15.2Z" fill="#0F55FE"/>
<path d="M27.36 15.2H24.32V18.24H27.36V15.2Z" fill="#0F55FE"/>
<path d="M33.44 15.2H30.4V18.24H33.44V15.2Z" fill="#0F55FE"/>
<path d="M36.48 15.2H33.44V18.24H36.48V15.2Z" fill="#0F55FE"/>
<path d="M39.52 15.2H36.48V18.24H39.52V15.2Z" fill="#0F55FE"/>
<path d="M45.6 15.2H42.56V18.24H45.6V15.2Z" fill="#0F55FE"/>
<path d="M51.68 15.2H48.64V18.24H51.68V15.2Z" fill="#0F55FE"/>
<path d="M57.76 15.2H54.72V18.24H57.76V15.2Z" fill="#0F55FE"/>
<path d="M60.8 15.2H57.76V18.24H60.8V15.2Z" fill="#0F55FE"/>
<path d="M63.84 15.2H60.8V18.24H63.84V15.2Z" fill="#0F55FE"/>
<path d="M69.92 15.2H66.88V18.24H69.92V15.2Z" fill="#0F55FE"/>
<path d="M9.12002 18.24H6.08002V21.28H9.12002V18.24Z" fill="#0F55FE"/>
<path d="M15.2 18.24H12.16V21.28H15.2V18.24Z" fill="#0F55FE"/>
<path d="M18.24 18.24H15.2V21.28H18.24V18.24Z" fill="#0F55FE"/>
<path d="M21.28 18.24H18.24V21.28H21.28V18.24Z" fill="#0F55FE"/>
<path d="M27.36 18.24H24.32V21.28H27.36V18.24Z" fill="#0F55FE"/>
<path d="M39.52 18.24H36.48V21.28H39.52V18.24Z" fill="#0F55FE"/>
<path d="M42.56 18.24H39.52V21.28H42.56V18.24Z" fill="#0F55FE"/>
<path d="M51.68 18.24H48.64V21.28H51.68V18.24Z" fill="#0F55FE"/>
<path d="M57.76 18.24H54.72V21.28H57.76V18.24Z" fill="#0F55FE"/>
<path d="M60.8 18.24H57.76V21.28H60.8V18.24Z" fill="#0F55FE"/>
<path d="M63.84 18.24H60.8V21.28H63.84V18.24Z" fill="#0F55FE"/>
<path d="M69.92 18.24H66.88V21.28H69.92V18.24Z" fill="#0F55FE"/>
<path d="M9.12002 21.28H6.08002V24.32H9.12002V21.28Z" fill="#0F55FE"/>
<path d="M27.36 21.28H24.32V24.32H27.36V21.28Z" fill="#0F55FE"/>
<path d="M33.44 21.28H30.4V24.32H33.44V21.28Z" fill="#0F55FE"/>
<path d="M39.52 21.28H36.48V24.32H39.52V21.28Z" fill="#0F55FE"/>
<path d="M42.56 21.28H39.52V24.32H42.56V21.28Z" fill="#0F55FE"/>
<path d="M45.6 21.28H42.56V24.32H45.6V21.28Z" fill="#0F55FE"/>
<path d="M51.68 21.28H48.64V24.32H51.68V21.28Z" fill="#0F55FE"/>
<path d="M69.92 21.28H66.88V24.32H69.92V21.28Z" fill="#0F55FE"/>
<path d="M9.12002 24.3199H6.08002V27.3599H9.12002V24.3199Z" fill="#0F55FE"/>
<path d="M12.16 24.3199H9.12V27.3599H12.16V24.3199Z" fill="#0F55FE"/>
<path d="M15.2 24.3199H12.16V27.3599H15.2V24.3199Z" fill="#0F55FE"/>
<path d="M18.24 24.3199H15.2V27.3599H18.24V24.3199Z" fill="#0F55FE"/>
<path d="M21.28 24.3199H18.24V27.3599H21.28V24.3199Z" fill="#0F55FE"/>
<path d="M24.32 24.3199H21.28V27.3599H24.32V24.3199Z" fill="#0F55FE"/>
<path d="M27.36 24.3199H24.32V27.3599H27.36V24.3199Z" fill="#0F55FE"/>
<path d="M33.44 24.3199H30.4V27.3599H33.44V24.3199Z" fill="#0F55FE"/>
<path d="M39.52 24.3199H36.48V27.3599H39.52V24.3199Z" fill="#0F55FE"/>
<path d="M45.6 24.3199H42.56V27.3599H45.6V24.3199Z" fill="#0F55FE"/>
<path d="M51.68 24.3199H48.64V27.3599H51.68V24.3199Z" fill="#0F55FE"/>
<path d="M54.72 24.3199H51.68V27.3599H54.72V24.3199Z" fill="#0F55FE"/>
<path d="M57.76 24.3199H54.72V27.3599H57.76V24.3199Z" fill="#0F55FE"/>
<path d="M60.8 24.3199H57.76V27.3599H60.8V24.3199Z" fill="#0F55FE"/>
<path d="M63.84 24.3199H60.8V27.3599H63.84V24.3199Z" fill="#0F55FE"/>
<path d="M66.88 24.3199H63.84V27.3599H66.88V24.3199Z" fill="#0F55FE"/>
<path d="M69.92 24.3199H66.88V27.3599H69.92V24.3199Z" fill="#0F55FE"/>
<path d="M36.48 27.36H33.44V30.4H36.48V27.36Z" fill="#0F55FE"/>
<path d="M45.6 27.36H42.56V30.4H45.6V27.36Z" fill="#0F55FE"/>
<path d="M9.12002 30.4H6.08002V33.44H9.12002V30.4Z" fill="#0F55FE"/>
<path d="M12.16 30.4H9.12V33.44H12.16V30.4Z" fill="#0F55FE"/>
<path d="M15.2 30.4H12.16V33.44H15.2V30.4Z" fill="#0F55FE"/>
<path d="M18.24 30.4H15.2V33.44H18.24V30.4Z" fill="#0F55FE"/>
<path d="M21.28 30.4H18.24V33.44H21.28V30.4Z" fill="#0F55FE"/>
<path d="M27.36 30.4H24.32V33.44H27.36V30.4Z" fill="#0F55FE"/>
<path d="M30.4 30.4H27.36V33.44H30.4V30.4Z" fill="#0F55FE"/>
<path d="M33.44 30.4H30.4V33.44H33.44V30.4Z" fill="#0F55FE"/>
<path d="M36.48 30.4H33.44V33.44H36.48V30.4Z" fill="#0F55FE"/>
<path d="M45.6 30.4H42.56V33.44H45.6V30.4Z" fill="#0F55FE"/>
<path d="M48.64 30.4H45.6V33.44H48.64V30.4Z" fill="#0F55FE"/>
<path d="M54.72 30.4H51.68V33.44H54.72V30.4Z" fill="#0F55FE"/>
<path d="M60.8 30.4H57.76V33.44H60.8V30.4Z" fill="#0F55FE"/>
<path d="M66.88 30.4H63.84V33.44H66.88V30.4Z" fill="#0F55FE"/>
<path d="M12.16 33.4399H9.12V36.4799H12.16V33.4399Z" fill="#0F55FE"/>
<path d="M15.2 33.4399H12.16V36.4799H15.2V33.4399Z" fill="#0F55FE"/>
<path d="M24.32 33.4399H21.28V36.4799H24.32V33.4399Z" fill="#0F55FE"/>
<path d="M30.4 33.4399H27.36V36.4799H30.4V33.4399Z" fill="#0F55FE"/>
<path d="M42.56 33.4399H39.52V36.4799H42.56V33.4399Z" fill="#0F55FE"/>
<path d="M48.64 33.4399H45.6V36.4799H48.64V33.4399Z" fill="#0F55FE"/>
<path d="M51.68 33.4399H48.64V36.4799H51.68V33.4399Z" fill="#0F55FE"/>
<path d="M54.72 33.4399H51.68V36.4799H54.72V33.4399Z" fill="#0F55FE"/>
<path d="M57.76 33.4399H54.72V36.4799H57.76V33.4399Z" fill="#0F55FE"/>
<path d="M60.8 33.4399H57.76V36.4799H60.8V33.4399Z" fill="#0F55FE"/>
<path d="M63.84 33.4399H60.8V36.4799H63.84V33.4399Z" fill="#0F55FE"/>
<path d="M66.88 33.4399H63.84V36.4799H66.88V33.4399Z" fill="#0F55FE"/>
<path d="M69.92 33.4399H66.88V36.4799H69.92V33.4399Z" fill="#0F55FE"/>
<path d="M9.12002 36.48H6.08002V39.52H9.12002V36.48Z" fill="#0F55FE"/>
<path d="M12.16 36.48H9.12V39.52H12.16V36.48Z" fill="#0F55FE"/>
<path d="M27.36 36.48H24.32V39.52H27.36V36.48Z" fill="#0F55FE"/>
<path d="M30.4 36.48H27.36V39.52H30.4V36.48Z" fill="#0F55FE"/>
<path d="M33.44 36.48H30.4V39.52H33.44V36.48Z" fill="#0F55FE"/>
<path d="M36.48 36.48H33.44V39.52H36.48V36.48Z" fill="#0F55FE"/>
<path d="M42.56 36.48H39.52V39.52H42.56V36.48Z" fill="#0F55FE"/>
<path d="M45.6 36.48H42.56V39.52H45.6V36.48Z" fill="#0F55FE"/>
<path d="M48.64 36.48H45.6V39.52H48.64V36.48Z" fill="#0F55FE"/>
<path d="M51.68 36.48H48.64V39.52H51.68V36.48Z" fill="#0F55FE"/>
<path d="M54.72 36.48H51.68V39.52H54.72V36.48Z" fill="#0F55FE"/>
<path d="M63.84 36.48H60.8V39.52H63.84V36.48Z" fill="#0F55FE"/>
<path d="M66.88 36.48H63.84V39.52H66.88V36.48Z" fill="#0F55FE"/>
<path d="M12.16 39.52H9.12V42.56H12.16V39.52Z" fill="#0F55FE"/>
<path d="M15.2 39.52H12.16V42.56H15.2V39.52Z" fill="#0F55FE"/>
<path d="M18.24 39.52H15.2V42.56H18.24V39.52Z" fill="#0F55FE"/>
<path d="M21.28 39.52H18.24V42.56H21.28V39.52Z" fill="#0F55FE"/>
<path d="M24.32 39.52H21.28V42.56H24.32V39.52Z" fill="#0F55FE"/>
<path d="M30.4 39.52H27.36V42.56H30.4V39.52Z" fill="#0F55FE"/>
<path d="M36.48 39.52H33.44V42.56H36.48V39.52Z" fill="#0F55FE"/>
<path d="M48.64 39.52H45.6V42.56H48.64V39.52Z" fill="#0F55FE"/>
<path d="M57.76 39.52H54.72V42.56H57.76V39.52Z" fill="#0F55FE"/>
<path d="M60.8 39.52H57.76V42.56H60.8V39.52Z" fill="#0F55FE"/>
<path d="M63.84 39.52H60.8V42.56H63.84V39.52Z" fill="#0F55FE"/>
<path d="M9.12002 42.5601H6.08002V45.6001H9.12002V42.5601Z" fill="#0F55FE"/>
<path d="M12.16 42.5601H9.12V45.6001H12.16V42.5601Z" fill="#0F55FE"/>
<path d="M27.36 42.5601H24.32V45.6001H27.36V42.5601Z" fill="#0F55FE"/>
<path d="M39.52 42.5601H36.48V45.6001H39.52V42.5601Z" fill="#0F55FE"/>
<path d="M42.56 42.5601H39.52V45.6001H42.56V42.5601Z" fill="#0F55FE"/>
<path d="M51.68 42.5601H48.64V45.6001H51.68V42.5601Z" fill="#0F55FE"/>
<path d="M57.76 42.5601H54.72V45.6001H57.76V42.5601Z" fill="#0F55FE"/>
<path d="M60.8 42.5601H57.76V45.6001H60.8V42.5601Z" fill="#0F55FE"/>
<path d="M69.92 42.5601H66.88V45.6001H69.92V42.5601Z" fill="#0F55FE"/>
<path d="M33.44 45.6H30.4V48.64H33.44V45.6Z" fill="#0F55FE"/>
<path d="M36.48 45.6H33.44V48.64H36.48V45.6Z" fill="#0F55FE"/>
<path d="M39.52 45.6H36.48V48.64H39.52V45.6Z" fill="#0F55FE"/>
<path d="M54.72 45.6H51.68V48.64H54.72V45.6Z" fill="#0F55FE"/>
<path d="M57.76 45.6H54.72V48.64H57.76V45.6Z" fill="#0F55FE"/>
<path d="M60.8 45.6H57.76V48.64H60.8V45.6Z" fill="#0F55FE"/>
<path d="M63.84 45.6H60.8V48.64H63.84V45.6Z" fill="#0F55FE"/>
<path d="M69.92 45.6H66.88V48.64H69.92V45.6Z" fill="#0F55FE"/>
<path d="M9.12002 48.64H6.08002V51.68H9.12002V48.64Z" fill="#0F55FE"/>
<path d="M12.16 48.64H9.12V51.68H12.16V48.64Z" fill="#0F55FE"/>
<path d="M15.2 48.64H12.16V51.68H15.2V48.64Z" fill="#0F55FE"/>
<path d="M18.24 48.64H15.2V51.68H18.24V48.64Z" fill="#0F55FE"/>
<path d="M21.28 48.64H18.24V51.68H21.28V48.64Z" fill="#0F55FE"/>
<path d="M24.32 48.64H21.28V51.68H24.32V48.64Z" fill="#0F55FE"/>
<path d="M27.36 48.64H24.32V51.68H27.36V48.64Z" fill="#0F55FE"/>
<path d="M33.44 48.64H30.4V51.68H33.44V48.64Z" fill="#0F55FE"/>
<path d="M39.52 48.64H36.48V51.68H39.52V48.64Z" fill="#0F55FE"/>
<path d="M45.6 48.64H42.56V51.68H45.6V48.64Z" fill="#0F55FE"/>
<path d="M48.64 48.64H45.6V51.68H48.64V48.64Z" fill="#0F55FE"/>
<path d="M51.68 48.64H48.64V51.68H51.68V48.64Z" fill="#0F55FE"/>
<path d="M54.72 48.64H51.68V51.68H54.72V48.64Z" fill="#0F55FE"/>
<path d="M63.84 48.64H60.8V51.68H63.84V48.64Z" fill="#0F55FE"/>
<path d="M66.88 48.64H63.84V51.68H66.88V48.64Z" fill="#0F55FE"/>
<path d="M9.12002 51.6801H6.08002V54.7201H9.12002V51.6801Z" fill="#0F55FE"/>
<path d="M27.36 51.6801H24.32V54.7201H27.36V51.6801Z" fill="#0F55FE"/>
<path d="M42.56 51.6801H39.52V54.7201H42.56V51.6801Z" fill="#0F55FE"/>
<path d="M45.6 51.6801H42.56V54.7201H45.6V51.6801Z" fill="#0F55FE"/>
<path d="M48.64 51.6801H45.6V54.7201H48.64V51.6801Z" fill="#0F55FE"/>
<path d="M54.72 51.6801H51.68V54.7201H54.72V51.6801Z" fill="#0F55FE"/>
<path d="M57.76 51.6801H54.72V54.7201H57.76V51.6801Z" fill="#0F55FE"/>
<path d="M60.8 51.6801H57.76V54.7201H60.8V51.6801Z" fill="#0F55FE"/>
<path d="M63.84 51.6801H60.8V54.7201H63.84V51.6801Z" fill="#0F55FE"/>
<path d="M66.88 51.6801H63.84V54.7201H66.88V51.6801Z" fill="#0F55FE"/>
<path d="M9.12002 54.72H6.08002V57.76H9.12002V54.72Z" fill="#0F55FE"/>
<path d="M15.2 54.72H12.16V57.76H15.2V54.72Z" fill="#0F55FE"/>
<path d="M18.24 54.72H15.2V57.76H18.24V54.72Z" fill="#0F55FE"/>
<path d="M21.28 54.72H18.24V57.76H21.28V54.72Z" fill="#0F55FE"/>
<path d="M27.36 54.72H24.32V57.76H27.36V54.72Z" fill="#0F55FE"/>
<path d="M33.44 54.72H30.4V57.76H33.44V54.72Z" fill="#0F55FE"/>
<path d="M36.48 54.72H33.44V57.76H36.48V54.72Z" fill="#0F55FE"/>
<path d="M51.68 54.72H48.64V57.76H51.68V54.72Z" fill="#0F55FE"/>
<path d="M54.72 54.72H51.68V57.76H54.72V54.72Z" fill="#0F55FE"/>
<path d="M57.76 54.72H54.72V57.76H57.76V54.72Z" fill="#0F55FE"/>
<path d="M60.8 54.72H57.76V57.76H60.8V54.72Z" fill="#0F55FE"/>
<path d="M9.12002 57.76H6.08002V60.8H9.12002V57.76Z" fill="#0F55FE"/>
<path d="M15.2 57.76H12.16V60.8H15.2V57.76Z" fill="#0F55FE"/>
<path d="M18.24 57.76H15.2V60.8H18.24V57.76Z" fill="#0F55FE"/>
<path d="M21.28 57.76H18.24V60.8H21.28V57.76Z" fill="#0F55FE"/>
<path d="M27.36 57.76H24.32V60.8H27.36V57.76Z" fill="#0F55FE"/>
<path d="M33.44 57.76H30.4V60.8H33.44V57.76Z" fill="#0F55FE"/>
<path d="M39.52 57.76H36.48V60.8H39.52V57.76Z" fill="#0F55FE"/>
<path d="M48.64 57.76H45.6V60.8H48.64V57.76Z" fill="#0F55FE"/>
<path d="M57.76 57.76H54.72V60.8H57.76V57.76Z" fill="#0F55FE"/>
<path d="M63.84 57.76H60.8V60.8H63.84V57.76Z" fill="#0F55FE"/>
<path d="M66.88 57.76H63.84V60.8H66.88V57.76Z" fill="#0F55FE"/>
<path d="M9.12002 60.8H6.08002V63.84H9.12002V60.8Z" fill="#0F55FE"/>
<path d="M15.2 60.8H12.16V63.84H15.2V60.8Z" fill="#0F55FE"/>
<path d="M18.24 60.8H15.2V63.84H18.24V60.8Z" fill="#0F55FE"/>
<path d="M21.28 60.8H18.24V63.84H21.28V60.8Z" fill="#0F55FE"/>
<path d="M27.36 60.8H24.32V63.84H27.36V60.8Z" fill="#0F55FE"/>
<path d="M33.44 60.8H30.4V63.84H33.44V60.8Z" fill="#0F55FE"/>
<path d="M42.56 60.8H39.52V63.84H42.56V60.8Z" fill="#0F55FE"/>
<path d="M45.6 60.8H42.56V63.84H45.6V60.8Z" fill="#0F55FE"/>
<path d="M48.64 60.8H45.6V63.84H48.64V60.8Z" fill="#0F55FE"/>
<path d="M54.72 60.8H51.68V63.84H54.72V60.8Z" fill="#0F55FE"/>
<path d="M63.84 60.8H60.8V63.84H63.84V60.8Z" fill="#0F55FE"/>
<path d="M9.12002 63.84H6.08002V66.88H9.12002V63.84Z" fill="#0F55FE"/>
<path d="M27.36 63.84H24.32V66.88H27.36V63.84Z" fill="#0F55FE"/>
<path d="M33.44 63.84H30.4V66.88H33.44V63.84Z" fill="#0F55FE"/>
<path d="M36.48 63.84H33.44V66.88H36.48V63.84Z" fill="#0F55FE"/>
<path d="M42.56 63.84H39.52V66.88H42.56V63.84Z" fill="#0F55FE"/>
<path d="M48.64 63.84H45.6V66.88H48.64V63.84Z" fill="#0F55FE"/>
<path d="M57.76 63.84H54.72V66.88H57.76V63.84Z" fill="#0F55FE"/>
<path d="M60.8 63.84H57.76V66.88H60.8V63.84Z" fill="#0F55FE"/>
<path d="M63.84 63.84H60.8V66.88H63.84V63.84Z" fill="#0F55FE"/>
<path d="M9.12002 66.88H6.08002V69.92H9.12002V66.88Z" fill="#0F55FE"/>
<path d="M12.16 66.88H9.12V69.92H12.16V66.88Z" fill="#0F55FE"/>
<path d="M15.2 66.88H12.16V69.92H15.2V66.88Z" fill="#0F55FE"/>
<path d="M18.24 66.88H15.2V69.92H18.24V66.88Z" fill="#0F55FE"/>
<path d="M21.28 66.88H18.24V69.92H21.28V66.88Z" fill="#0F55FE"/>
<path d="M24.32 66.88H21.28V69.92H24.32V66.88Z" fill="#0F55FE"/>
<path d="M27.36 66.88H24.32V69.92H27.36V66.88Z" fill="#0F55FE"/>
<path d="M33.44 66.88H30.4V69.92H33.44V66.88Z" fill="#0F55FE"/>
<path d="M51.68 66.88H48.64V69.92H51.68V66.88Z" fill="#0F55FE"/>
<path d="M54.72 66.88H51.68V69.92H54.72V66.88Z" fill="#0F55FE"/>
<path d="M60.8 66.88H57.76V69.92H60.8V66.88Z" fill="#0F55FE"/>
<path d="M66.88 66.88H63.84V69.92H66.88V66.88Z" fill="#0F55FE"/>
</svg>
