<svg width="58" height="70" viewBox="0 0 58 70" fill="none" xmlns="http://www.w3.org/2000/svg">
<path d="M48.7987 64.6885L41.6469 68.8174L34.4952 64.6885L27.3434 68.8174L20.1917 64.6885L10.9903 70V14.9557H0V7.55781C0 3.39062 3.38415 0 7.54338 0H50.4566C54.6158 0 58 3.39062 58 7.55781V70L48.7987 64.6885ZM7.54338 4.10429C5.64253 4.10429 4.09646 5.65332 4.09646 7.55781V10.8514H42.9119V7.55781C42.9119 6.31504 43.2134 5.14062 43.7456 4.10429H7.54338ZM50.4566 4.10429C48.5558 4.10429 47.0097 5.65332 47.0097 7.55781V14.9557H15.0868V62.8975L20.1903 59.9512L27.342 64.0801L34.4938 59.9512L41.6455 64.0801L48.7973 59.9512L53.9008 62.8975V7.55781C53.9035 5.65332 52.3561 4.10429 50.4566 4.10429Z" fill="#1055FD"/>
<path d="M49.8057 51.476H19.1832V47.3717H49.8057V51.476Z" fill="#1055FD"/>
<path d="M49.8057 43.6488H19.1832V39.5445H49.8057V43.6488Z" fill="#1055FD"/>
<path d="M34.4938 35.8217H19.1832V31.7174H34.4938V35.8217Z" fill="#1055FD"/>
</svg>
