<svg width="19" height="18" viewBox="0 0 19 18" fill="none" xmlns="http://www.w3.org/2000/svg">
<path fill-rule="evenodd" clip-rule="evenodd" d="M15.7972 2.63537C14.1311 0.967266 11.9154 0.0481226 9.55483 0.047287C4.69089 0.047287 0.732166 4.00573 0.730216 8.87107C0.729659 10.4264 1.13575 11.9446 1.90811 13.283L0.656128 17.8556L5.33429 16.6284C6.62332 17.3314 8.07445 17.7021 9.55121 17.7024H9.55483C14.4182 17.7024 18.3775 13.7436 18.3792 8.87803C18.3803 6.52029 17.4634 4.3032 15.7972 2.63537ZM9.55483 16.2122H9.55177C8.23572 16.2117 6.94502 15.858 5.81865 15.1898L5.55099 15.0307L2.77489 15.7591L3.51578 13.0526L3.34142 12.7752C2.60722 11.6073 2.21951 10.2576 2.22006 8.8719C2.22174 4.82767 5.51199 1.53769 9.55762 1.53769C11.5168 1.53825 13.3584 2.30225 14.743 3.68877C16.1275 5.07528 16.8899 6.91802 16.8893 8.87775C16.8876 12.922 13.5977 16.2122 9.55483 16.2122ZM13.5779 10.7191C13.3576 10.6088 12.2733 10.0754 12.0711 10.0016C11.8691 9.92808 11.7221 9.89132 11.575 10.1119C11.4279 10.3325 11.0054 10.8294 10.8767 10.9765C10.748 11.1235 10.6196 11.1422 10.399 11.0316C10.1785 10.9213 9.46821 10.6885 8.62594 9.93727C7.97056 9.35264 7.52798 8.63042 7.3993 8.40982C7.2709 8.18895 7.39819 8.08116 7.49595 7.95972C7.73465 7.66337 7.97363 7.35253 8.04716 7.20547C8.12069 7.0584 8.08392 6.92944 8.02877 6.81915C7.9739 6.70885 7.53271 5.62343 7.34916 5.18196C7.17007 4.75219 6.98847 4.81012 6.85311 4.80344C6.7247 4.79703 6.57764 4.79564 6.43058 4.79564C6.28351 4.79564 6.04482 4.85079 5.8426 5.07166C5.64067 5.29253 5.07108 5.82592 5.07108 6.91106C5.07108 7.99621 5.86127 9.04487 5.97128 9.19193C6.08158 9.33899 7.52603 11.5661 9.7381 12.5212C10.2642 12.7485 10.6748 12.8841 10.9951 12.9858C11.5235 13.1537 12.0039 13.1298 12.3838 13.0732C12.8075 13.0097 13.6882 12.5398 13.8723 12.0248C14.0561 11.5098 14.0561 11.0684 14.0007 10.9762C13.9456 10.8845 13.7985 10.8294 13.5779 10.7191Z" fill="white"/>
</svg>
